<svg xmlns="http://www.w3.org/2000/svg" viewBox="0 0 477.904 161.194" enable-background="new 0 0 477.904 161.194"><path fill="#04CEAD" d="M227.86 45.592c-1.768-4.003-17.206-9.083-20.696 3.741-1.814 7.97-4.725 40.147-9.644 42.219-1.757.701-3.469-.256-3.848-1.951-1.15-5.157 5.027-37.524 5.209-39.783 1.355-8.338-16.332-8.031-21.524-2.251-3.778 4.358-4.957 23.037-5.564 26.317-3.771 25.038-11.507 27.442-13.156 26.701-3.001-1.432-4.167-9.452-1.411-32.845.589-5.875-1.365-22.639-23.899-23.179-32.188-.774-38.844 42.142-34.833 58.666 5.228 20.499 31.074 19.877 41.097 5.604 1.167-1.939 2.523 10.166 20.737 8.623 8.286-.821 13.33-8.885 14.65-9.077 1.093-.164 4.719 6.908 21.121 1.319 2.145-.689-6.332 36.433-5.427 44.096.674 4.466 5.384 6.764 9.427 7.317 7.797.784 10.877-3.907 12.243-8.989 1.231-5.117 18.902-100.327 15.518-106.528zm-106.077 56.46c-3.901-.47-6.441-20.935 5.672-40.393 4.433-6.325 7.285-1.227 7.023 5.314.068 8.933-5.002 35.393-12.695 35.079zM95.093 15.055c-13.058 6.331-18.748 34.419-19.819 39.386-.798 4.084-4.76 24.324-6.332 30.269-.346 1.009-2.706-9.04-3.327-22.638-.433-6.226.722-25.96-4.376-31.057-3.838-3.415-11.221-5.159-19.617.995-6.559 4.848-11.045 19.309-12.363 28.806-.897 6.757-3.433 28.088-4.296 26.777-3.986-6.188.426-46.8.133-60.49.065-3.042-2.082-8.978-12.07-8.515-6.491.598-10.579 2.343-12.511 14.679-1.472 10.109.639 51.654 1.019 55.42 1.29 14.898 5.407 28.922 14.211 35.687 5.99 4.492 14.323 5.185 19.437.89 7.117-5.805 5.818-50.244 8.797-50.416 1.56-.038 7.516 45.44 15.064 50.188 10.744 6.543 20.122 1.435 22.787-2.813 2.213-4.049 2.901-8.676 3.547-13.175 6.131-42.661 14.358-61.464 22.758-75.651 8.218-13.701-4.08-22.685-13.042-18.342zM297.258 46.991c.694-3.043-5.152-6.826-6.798-7.873-3.585-2.275-8.888-1.405-16.558 3.155-5.413 3.22-15.047 11.957-18.085 14.545-1.619 1.266 6.371-43.421 5.669-50.683-.703-7.26-20.11-10.115-22.412 3.039-3.552 19.224-8.844 82.241-8.049 99.303.329 7.108 11.209 7.582 15.874 7.344 5.02-.166 5.323-5.551 5.412-6.961.344-7.007-1.981-13.913-1.127-20.916.334-2.216 25.827 29.355 29.997 31.481 9.817 5.011 23.128-6.916 14.816-16.768-2.461-3.153-30.074-28.399-29.993-31.305.654-5.713 29.339-17.445 31.254-24.361zM421.772 39.237c-1.816-1.04-15.54-8.201-26.166 5.752-.384-3.07.078-6.029-1.866-9.063-2.129-3.07-13.513-9.414-19.431 3.249-1.857 3.97-3.392 42.895-8.27 50.2-1.709 2.665-9.231 8.851-10.321-2.648-.992-8.876 3.059-29.454 4.757-36.283 2.619-10.538-11.962-16.736-20.119-9.652-5.743 4.658-10.739 49.748-17.502 47.59-5.011-1.606 3.682-36.517 4.097-41.281.768-8.818-14.72-7.839-19.758-1.382-4.751 4.835-14.748 41.083-6.824 54.709 8.732 13.519 28.505 11.751 37.872-3.804.693-1.285 1.409 13.934 26.762 10.112-.669 5.346-1.38 11.01-2.06 16.436-.288 2.308-.54 4.21.93 6.758 2.725 4.534 15.911 10.053 21.319-.513 1.261-2.465 2.174-21.707 2.635-23.835.303-1.377 4.208 5.188 13.757 4.267 34.982-5.12 43.478-57.255 20.188-70.612zm-21.528 50.76c-1.781.841-3.404.158-3.663-2.181-1.426-21.009 9.024-35.964 12.273-36.114 4.543-.217 2.024 32.117-8.61 38.295z"/><path stroke="#fff" stroke-width="2.5" stroke-linecap="round" stroke-linejoin="round" stroke-miterlimit="10" d="M118.782 113.732c-7.72-.268-12.05-4.527-14.228-10.534M303.694 95.143c2.172 5.351 6.488 9.431 14.119 9.124M429.272 63.464c-.107-10.229-7.012-21.79-16.833-22.65M34.758 58.989s2.91-22.103 16.063-26.409M57.516 110.571c2.094 12.356 11.48 12.526 14.548 12.383M79.65 56.817c1.364-8.866 10.572-42.427 22.474-38.041M26.904 122.972c-4.184-.506-9.885-5.262-13.927-12.974-7.686-14.662-6.692-57.236-5.982-73.382l.125-1.259c.501-5.054.803-8.104 2.46-9.78" fill="none"/><circle fill="#fff" cx="34.084" cy="63.158" r="1.26"/><path stroke="#fff" stroke-width="2.5" stroke-linecap="round" stroke-linejoin="round" stroke-miterlimit="10" d="M177.968 63.96s.66-5.224 1.453-8.193c.652-2.437 1.683-8.196 8.555-7.595M306.108 61.96s.952-3.888 1.807-6.841c.957-3.319 3.962-9.35 9.701-9.615M376.441 58.144s1.112-10.793 1.406-13.852c.33-3.459 2.085-8.968 8.164-7.884M210.56 62.495s.677-4.884 1.124-8.174c.715-5.255 2.731-9.194 8.369-8.282M339.209 59.612s1.304-5.722 2.099-8.691c.466-1.741 1.825-9.423 8.456-8.931M200.005 123.777s-5.862 24.044-3.877 29.094c.689 1.753 2.284 2.937 5.382 3.415M107.177 71.589c1.855-8.585 10.246-21.955 22.236-22.441M239.977 44.244c.843-11.87 2.219-22.976 3.427-31.119.905-6.099 5.335-9.018 8.544-8.531M274.058 105.772l8.178 7.985s2.715 2.983 6.596 1.633c1.611-.558 2.832-1.378 3.762-2.293M368.62 112.939s-.313 1.842-.937 7.484c-.854 7.705 4.597 9.84 7.994 9.683M235.018 104.258s-.747 5.039 3.527 5.853M272.917 48.569c2.703-2.166 6.029-4.194 9.237-5.331 3.907-1.383 5.303-.705 6.891.828" fill="none"/><path fill="#04CEAD" d="M450.63 83.456c6.422-6.876 15.505-5.793 18.503-3.798 1.944 1.294 3.07 3.265 3.343 5.958.172 1.692.057 3.628-.344 5.806-.402 2.178-1.534 4.43-3.398 6.757-1.863 2.325-4.333 3.645-7.41 3.956-3.155.319-6.248-.669-9.278-2.966-3.03-2.297-4.671-4.676-4.92-7.138-.272-2.694.779-5.658 3.504-8.575zm2.137-49.127c.278-9.899 1.31-17.754 2.912-23.613 1.31-4.793 13.136-2.302 15.73-1.244 1.426.634 7.605 2.496 6.319 9.445-.107.576-2.439 9.283-2.439 9.283-1.326 4.565-2.242 7.806-2.746 9.722-.506 1.917-1.257 4.869-2.252 8.855-.995 3.987-1.777 7.584-2.348 10.79-.567 3.205-.559 7.886-1.24 9.045-.831 1.414-3.348 1.291-6.931.06-3.583-1.23-5.592-3.223-6.027-5.977-.932-7.677-1.259-16.466-.978-26.366z"/><path stroke="#fff" stroke-width="2.5" stroke-linecap="round" stroke-linejoin="round" stroke-miterlimit="10" d="M458.891 21.285c.361-2.384.79-4.516 1.28-6.306.609-2.228 3.819-1.525 6.694-.962M459.546 97.275c-.547.295-1.97-.141-4.072-1.56-1.849-1.248-2.66-2.688-2.686-3.715" fill="none"/></svg>