<svg xmlns="http://www.w3.org/2000/svg" viewBox="3.574 10.326 49.263 40.034" enable-background="new 3.574 10.326 49.263 40.034"><path fill="#fff" d="M52.837 15.065c-1.811.805-3.76 1.348-5.805 1.591 2.088-1.25 3.69-3.231 4.444-5.592-1.953 1.159-4.115 2-6.418 2.454-1.844-1.964-4.471-3.192-7.377-3.192-5.581 0-10.107 4.525-10.107 10.107 0 .791.089 1.562.262 2.303-8.399-.422-15.848-4.445-20.833-10.561-.87 1.492-1.367 3.229-1.367 5.082 0 3.507 1.783 6.601 4.495 8.412-1.655-.053-3.215-.508-4.577-1.265l-.001.128c0 4.896 3.483 8.98 8.107 9.91-.848.229-1.741.354-2.663.354-.651 0-1.285-.062-1.901-.182 1.286 4.015 5.019 6.938 9.44 7.019-3.459 2.711-7.815 4.327-12.552 4.327-.816 0-1.62-.048-2.411-.142 4.474 2.869 9.786 4.541 15.493 4.541 18.591 0 28.756-15.4 28.756-28.756 0-.439-.009-.875-.028-1.31 1.975-1.42 3.689-3.201 5.043-5.228z"/></svg>